<svg width="16" height="16" viewBox="0 0 16 16" fill="none" xmlns="http://www.w3.org/2000/svg">
<path fill-rule="evenodd" clip-rule="evenodd" d="M1.33325 8.00016C1.33325 4.31826 4.31802 1.3335 7.99992 1.3335C11.6818 1.3335 14.6666 4.31826 14.6666 8.00016C14.6666 11.6821 11.6818 14.6668 7.99992 14.6668C4.31802 14.6668 1.33325 11.6821 1.33325 8.00016ZM13.3333 8.00016C13.3333 5.05464 10.9454 2.66683 7.99992 2.66683C5.0544 2.66683 2.66659 5.05464 2.66659 8.00016C2.66659 10.9457 5.0544 13.3335 7.99992 13.3335C10.9454 13.3335 13.3333 10.9457 13.3333 8.00016ZM7.99992 4.66683C8.34181 4.66683 8.62359 4.92419 8.6621 5.25575L8.66658 5.3335V8.00016C8.66658 8.36835 8.36811 8.66683 7.99992 8.66683C7.65803 8.66683 7.37625 8.40947 7.33774 8.07791L7.33325 8.00016V5.3335C7.33325 4.96531 7.63173 4.66683 7.99992 4.66683ZM8.67325 10.6668C8.67325 10.2986 8.37477 10.0002 8.00659 10.0002L7.92217 10.0046C7.59061 10.0432 7.33325 10.3249 7.33325 10.6668C7.33325 11.035 7.63173 11.3335 7.99992 11.3335L8.08433 11.329C8.41589 11.2905 8.67325 11.0087 8.67325 10.6668Z" fill="#579BEA"/>
</svg>
